<svg width="34" height="34" viewBox="0 0 34 34" fill="none" xmlns="http://www.w3.org/2000/svg">
<path fill-rule="evenodd" clip-rule="evenodd" d="M4.58904 17.7446C4.37266 17.3436 4.37266 16.857 4.58904 16.456C7.19659 11.6337 12.0134 7.45361 16.8302 7.45361C21.647 7.45361 26.4638 11.6337 29.0713 16.4574C29.2877 16.8584 29.2877 17.3449 29.0713 17.746C26.4638 22.5683 21.647 26.7484 16.8302 26.7484C12.0134 26.7484 7.19659 22.5683 4.58904 17.7446Z" stroke="#828282" stroke-width="2.06729" stroke-linecap="round" stroke-linejoin="round"/>
<path d="M19.7545 14.1773C21.3691 15.792 21.3691 18.4098 19.7545 20.0245C18.1398 21.6391 15.5219 21.6391 13.9073 20.0245C12.2926 18.4098 12.2926 15.792 13.9073 14.1773C15.5219 12.5626 18.1398 12.5626 19.7545 14.1773" stroke="#828282" stroke-width="1.96889" stroke-linecap="round" stroke-linejoin="round"/>
</svg>
