<svg width="24" height="24" viewBox="0 0 24 24" fill="none" xmlns="http://www.w3.org/2000/svg">
<path fill-rule="evenodd" clip-rule="evenodd" d="M21.5562 6.3155L12.8759 13.504C12.6292 13.7084 12.3189 13.8202 11.9986 13.8202C11.6783 13.8202 11.368 13.7084 11.1214 13.504L2.44512 6.3155C2.39857 6.45563 2.37489 6.60234 2.375 6.75V17.75C2.375 18.1147 2.51987 18.4644 2.77773 18.7223C3.03559 18.9801 3.38533 19.125 3.75 19.125H20.25C20.6147 19.125 20.9644 18.9801 21.2223 18.7223C21.4801 18.4644 21.625 18.1147 21.625 17.75V6.75C21.6256 6.60242 21.6023 6.45571 21.5562 6.3155ZM3.75 4H20.25C20.9793 4 21.6788 4.28973 22.1945 4.80546C22.7103 5.32118 23 6.02065 23 6.75V17.75C23 18.4793 22.7103 19.1788 22.1945 19.6945C21.6788 20.2103 20.9793 20.5 20.25 20.5H3.75C3.02065 20.5 2.32118 20.2103 1.80546 19.6945C1.28973 19.1788 1 18.4793 1 17.75V6.75C1 6.02065 1.28973 5.32118 1.80546 4.80546C2.32118 4.28973 3.02065 4 3.75 4ZM3.46125 5.375L11.1283 11.7041C11.3738 11.9069 11.6822 12.0182 12.0006 12.019C12.3191 12.0197 12.628 11.9099 12.8745 11.7083L20.6185 5.375H3.46125Z" fill="#828282"/>
</svg>
